<?xml version="1.0" encoding="utf-8"?>
<!-- Generator: Adobe Illustrator 26.0.3, SVG Export Plug-In . SVG Version: 6.00 Build 0)  -->
<svg version="1.1" id="Layer_1" xmlns="http://www.w3.org/2000/svg" xmlns:xlink="http://www.w3.org/1999/xlink" x="0px" y="0px"
	 viewBox="0 0 283.46 283.46" style="enable-background:new 0 0 283.46 283.46;" xml:space="preserve">
<style type="text/css">
	.st0{fill:#9C2022;}
	.st1{fill:#0F527C;}
	.st2{fill:#A2A2A2;}
	.st3{fill:none;stroke:#9C2022;stroke-miterlimit:10;}
	.st4{fill:#F1F2F2;}
</style>
<g>
	<g>
		<path class="st0" d="M161.62,117.24c0,0,12.41-5.76,12.41-23.86c0-21.41-26.89-22.96-26.89-22.96h-42.8
			c1.03,4.15-0.56,33.53-2.09,57.25c-8.66,2.04-17.35,4.66-26.05,7.81c8.56-1.96,17.18-3.44,25.84-4.43
			c2.15-0.26,4.3-0.47,6.48-0.67c5.22-0.48,10.49-0.76,15.73-0.84c4.6-0.11,9.2-0.06,13.8,0.11c5.42,0.2,10.84,0.6,16.23,1.18
			c8.99,0.95,17.93,2.43,26.79,4.43c2.04,0.47,4.06,0.95,6.08,1.46C185.76,119.84,161.62,117.24,161.62,117.24z M154.09,115.91
			c-1.62,0.53-3.79,1.16-6.52,1.93l2.47,4.88c-5.09-0.2-10.19-0.15-15.31,0.13l-3.18-6.53c-0.67-1.29-1.59-3.21-2.75-5.76
			c2.45,0.45,4.71,0.67,6.73,0.67c3.16,0,6.06-0.51,8.66-1.59c2.63-1.05,4.62-2.67,6.04-4.88c1.4-2.19,2.09-4.6,2.09-7.2
			c0-1.6-0.3-3.05-0.9-4.41c-0.6-1.35-1.63-2.49-3.07-3.44c-1.42-0.95-3.14-1.55-5.12-1.81c-2-0.28-3.98-0.41-5.97-0.41
			c-1.1,0-2.6,0.02-4.52,0.06c-1.91,0.04-4.28,0.06-7.07,0.06l-0.99,23.22l-0.33,12.9c-5.2,0.6-10.43,1.44-15.65,2.51
			c0.22-3.78,0.39-7.72,0.54-11.76c0.54-14.58,0.82-27.37,0.82-38.42c4.4,0.09,8.12,0.13,11.09,0.13c3.2,0,6.34-0.06,9.42-0.17
			c3.07-0.13,6.32-0.17,9.74-0.17c4.26,0,8.08,0.23,11.43,0.73c3.37,0.5,6.36,1.61,8.96,3.4c2.63,1.76,4.56,3.91,5.83,6.43
			c1.27,2.54,1.92,5.46,1.92,8.82c0,2.11-0.24,4.12-0.73,6.02c-0.47,1.91-1.18,3.7-2.11,5.37c-0.95,1.68-2.06,3.14-3.35,4.41
			c-1.29,1.27-2.56,2.26-3.82,2.98C157.17,114.74,155.73,115.39,154.09,115.91z"/>
		<path class="st0" d="M101.53,138.54c2.15-0.13,4.3-0.24,6.45-0.32c-0.32,4.62-0.68,14.72-1.07,20.33h-6.78
			C100.13,158.56,100.76,150.17,101.53,138.54z"/>
		<path class="st0" d="M142.59,139.42l6.82,19.14h-25.74l0.34-20.4C130.23,138.33,136.42,138.75,142.59,139.42z"/>
		<path class="st0" d="M168.98,157.39c-1.99-3.68-4.94-8.93-5.18-9.33l-3.37-6.08c8.17,1.51,16.28,3.42,24.27,5.76
			C181.33,153.29,174.99,156.05,168.98,157.39z"/>
	</g>
	<g>
		<path class="st1" d="M76.23,196.35v-26.67h9.91c4.74,0,7.92,1.84,7.92,6.93c0,2.41-0.78,4.35-2.94,5.45v0.07
			c3.82,0.5,5.45,3.08,5.45,6.79c0,5.59-4.78,7.43-9.66,7.43H76.23z M83.17,180.14h0.78c1.84,0,3.75-0.32,3.75-2.58
			c0-2.44-2.16-2.58-4.03-2.58h-0.5V180.14z M83.17,191.04h0.88c2.05,0,5.52,0.11,5.52-2.83c0-3.22-3.43-2.9-5.7-2.9h-0.71V191.04z"
			/>
		<path class="st1" d="M122.37,196.35h-8.63l-6.54-10.26h-0.07v10.26h-6.93v-26.67h10.37c5.27,0,9.27,2.51,9.27,8.21
			c0,3.68-2.05,6.86-5.84,7.54L122.37,196.35z M107.12,181.63h0.67c2.26,0,4.81-0.42,4.81-3.32s-2.55-3.33-4.81-3.33h-0.67V181.63z"
			/>
		<path class="st1" d="M131.18,196.35h-6.93v-26.67h6.93V196.35z"/>
		<path class="st1" d="M135.71,169.67h9.83c7.43,0,13.55,5.84,13.55,13.34c0,7.5-6.16,13.34-13.55,13.34h-9.83V169.67z
			 M142.64,190.47h1.56c4.14,0,7.68-2.26,7.68-7.46c0-4.78-3.15-7.46-7.61-7.46h-1.63V190.47z"/>
		<path class="st1" d="M188.92,181.45c-0.07,3.89-0.35,7.22-2.72,10.54c-2.62,3.64-6.54,5.24-11,5.24c-8.38,0-14.22-5.7-14.22-14.08
			c0-8.67,5.87-14.36,14.47-14.36c5.48,0,9.73,2.48,12.03,7.46l-6.58,2.76c-0.96-2.55-2.97-4.24-5.77-4.24
			c-4.56,0-6.93,4.35-6.93,8.42c0,4.14,2.48,8.35,7.04,8.35c3.01,0,5.31-1.56,5.59-4.63h-5.66v-5.45H188.92z"/>
		<path class="st1" d="M199.04,175.55V180h7.82v5.87h-7.82v4.6h8.24v5.87H192.1v-26.67h15.18v5.87H199.04z"/>
	</g>
	<g>
		<path class="st2" d="M85.81,207.82c-0.02,1.29-0.12,2.39-0.9,3.5c-0.87,1.21-2.17,1.74-3.65,1.74c-2.78,0-4.72-1.89-4.72-4.67
			c0-2.87,1.95-4.76,4.8-4.76c1.82,0,3.23,0.82,3.99,2.48l-2.18,0.91c-0.32-0.84-0.99-1.41-1.91-1.41c-1.51,0-2.3,1.44-2.3,2.79
			c0,1.37,0.82,2.77,2.33,2.77c1,0,1.76-0.52,1.85-1.54h-1.88v-1.81H85.81z"/>
		<path class="st2" d="M88.95,212.76h-2.13v-9.74h2.13V212.76z"/>
		<path class="st2" d="M97.16,209.75c0,2.04-1.69,3.2-3.62,3.2c-1.92,0-3.62-1.15-3.62-3.2s1.69-3.21,3.62-3.21
			C95.47,206.54,97.16,207.7,97.16,209.75z M92.17,209.75c0,0.76,0.5,1.35,1.37,1.35c0.87,0,1.37-0.59,1.37-1.35
			c0-0.74-0.5-1.36-1.37-1.36C92.67,208.39,92.17,209.02,92.17,209.75z"/>
		<path class="st2" d="M98.05,203.02h2.13v4.3c0.46-0.53,1.17-0.79,1.86-0.79c1.78,0,3.01,1.48,3.01,3.2c0,1.74-1.24,3.21-3.04,3.21
			c-0.7,0-1.43-0.27-1.82-0.87h-0.02v0.67h-2.13V203.02z M100.12,209.75c0,0.76,0.5,1.35,1.37,1.35c0.87,0,1.37-0.59,1.37-1.35
			c0-0.74-0.5-1.36-1.37-1.36C100.62,208.39,100.12,209.02,100.12,209.75z"/>
		<path class="st2" d="M112.71,212.76h-2.13v-0.67h-0.02c-0.38,0.6-1.11,0.87-1.82,0.87c-1.78,0-3.04-1.49-3.04-3.21
			c0-1.72,1.23-3.2,3.01-3.2c0.69,0,1.42,0.26,1.86,0.79v-0.59h2.13V212.76z M107.9,209.75c0,0.76,0.5,1.35,1.37,1.35
			c0.87,0,1.37-0.59,1.37-1.35c0-0.74-0.5-1.36-1.37-1.36C108.4,208.39,107.9,209.02,107.9,209.75z"/>
		<path class="st2" d="M116.26,212.76h-2.13v-9.74h2.13V212.76z"/>
		<path class="st2" d="M125.45,209.29l2.15-5.37h2.5l-3.78,8.84h-1.78l-3.72-8.84h2.5L125.45,209.29z"/>
		<path class="st2" d="M135.93,210.11h-4.49c0,0.87,0.46,1.34,1.34,1.34c0.46,0,0.79-0.15,1.02-0.55h2.05
			c-0.34,1.42-1.69,2.06-3.06,2.06c-1.99,0-3.48-1.13-3.48-3.2c0-2.01,1.37-3.21,3.33-3.21c2.09,0,3.3,1.29,3.3,3.34V210.11z
			 M133.95,208.87c-0.11-0.57-0.63-0.95-1.21-0.95c-0.62,0-1.14,0.33-1.27,0.95H133.95z"/>
		<path class="st2" d="M139.04,203.02v4.48h0.02c0.49-0.66,1.09-0.96,1.92-0.96c1.52,0,2.26,1.01,2.26,2.53v3.68h-2.13v-3.08
			c0-0.7-0.11-1.43-0.96-1.43c-0.84,0-1.11,0.73-1.11,1.43v3.08h-2.13v-9.74H139.04z"/>
		<path class="st2" d="M146.93,204.43c0,0.66-0.54,1.2-1.2,1.2c-0.66,0-1.2-0.54-1.2-1.2c0-0.66,0.54-1.2,1.2-1.2
			C146.39,203.23,146.93,203.77,146.93,204.43z M146.8,212.76h-2.13v-6.02h2.13V212.76z"/>
		<path class="st2" d="M152.54,208.7c-0.32-0.23-0.69-0.42-1.1-0.42c-0.82,0-1.47,0.63-1.47,1.47c0,0.87,0.62,1.48,1.5,1.48
			c0.38,0,0.79-0.15,1.07-0.41v1.81c-0.47,0.23-0.98,0.34-1.5,0.34c-1.78,0-3.27-1.33-3.27-3.14c0-1.94,1.48-3.27,3.37-3.27
			c0.49,0,0.99,0.12,1.41,0.35V208.7z"/>
		<path class="st2" d="M156.01,212.76h-2.13v-9.74h2.13V212.76z"/>
		<path class="st2" d="M163.59,210.11h-4.49c0,0.87,0.46,1.34,1.34,1.34c0.46,0,0.79-0.15,1.02-0.55h2.05
			c-0.34,1.42-1.69,2.06-3.06,2.06c-1.99,0-3.48-1.13-3.48-3.2c0-2.01,1.37-3.21,3.33-3.21c2.09,0,3.3,1.29,3.3,3.34V210.11z
			 M161.61,208.87c-0.11-0.57-0.63-0.95-1.21-0.95c-0.62,0-1.14,0.33-1.27,0.95H161.61z"/>
		<path class="st2" d="M172.16,212.76h-2.3v-6.9h-1.9v-1.95h6.1v1.95h-1.9V212.76z"/>
		<path class="st2" d="M176.33,207.73h0.02c0.41-0.74,1.11-1.07,1.95-1.07h0.41v2.05c-0.29-0.16-0.57-0.2-0.9-0.2
			c-1.18,0-1.48,0.79-1.48,1.82v2.43h-2.13v-6.02h2.13V207.73z"/>
		<path class="st2" d="M186.09,212.76h-2.13v-0.67h-0.02c-0.38,0.6-1.11,0.87-1.82,0.87c-1.78,0-3.04-1.49-3.04-3.21
			c0-1.72,1.23-3.2,3.01-3.2c0.69,0,1.42,0.26,1.86,0.79v-0.59h2.13V212.76z M181.29,209.75c0,0.76,0.5,1.35,1.37,1.35
			c0.87,0,1.37-0.59,1.37-1.35c0-0.74-0.5-1.36-1.37-1.36C181.79,208.39,181.29,209.02,181.29,209.75z"/>
		<path class="st2" d="M192.04,212.09h-0.02c-0.38,0.6-1.11,0.87-1.82,0.87c-1.78,0-3.04-1.49-3.04-3.21c0-1.72,1.23-3.2,3.01-3.2
			c0.69,0,1.42,0.26,1.86,0.79v-4.3h2.13v9.74h-2.13V212.09z M189.37,209.75c0,0.76,0.5,1.35,1.37,1.35c0.87,0,1.37-0.59,1.37-1.35
			c0-0.74-0.5-1.36-1.37-1.36C189.87,208.39,189.37,209.02,189.37,209.75z"/>
		<path class="st2" d="M201.7,210.11h-4.49c0,0.87,0.46,1.34,1.34,1.34c0.46,0,0.79-0.15,1.02-0.55h2.05
			c-0.34,1.42-1.69,2.06-3.06,2.06c-1.99,0-3.48-1.13-3.48-3.2c0-2.01,1.37-3.21,3.33-3.21c2.09,0,3.3,1.29,3.3,3.34V210.11z
			 M199.71,208.87c-0.11-0.57-0.63-0.95-1.21-0.95c-0.62,0-1.14,0.33-1.27,0.95H199.71z"/>
		<path class="st2" d="M204.81,207.73h0.02c0.41-0.74,1.11-1.07,1.95-1.07h0.41v2.05c-0.29-0.16-0.57-0.2-0.9-0.2
			c-1.18,0-1.48,0.79-1.48,1.82v2.43h-2.13v-6.02h2.13V207.73z"/>
	</g>
</g>
</svg>
